<svg width="352" height="66" viewBox="0 0 352 66" fill="none" xmlns="http://www.w3.org/2000/svg">
<path d="M11.7832 37.7587C11.7832 37.7587 19.9735 50.3335 35.6715 58.9999C38.4016 57.8104 60.5836 47.6147 91.6384 49.314C89.5908 48.2944 47.9569 28.9224 11.7832 37.7587Z" fill="white"/>
<path d="M92.6627 49.1437C55.9771 25.3536 9.39492 34.1899 9.39492 34.1899C9.39492 34.1899 8.34555 32.285 7.05387 29.9298L0 13.326L0.0102378 13.2886C3.93474 12.6089 24.9223 10.5697 55.6358 16.6872C85.4962 25.6934 90.9564 44.8955 92.6627 49.1437Z" fill="white"/>
<path d="M32.9424 11.5896C32.9424 11.5896 46.2516 3.60296 60.2433 8.70084C57.5132 12.2694 55.1244 15.3281 55.1244 15.3281C55.1244 15.3281 42.1564 11.9295 32.9424 11.5896Z" fill="white"/>
<path d="M57.0498 15.3284L62.1192 9.21094C62.1192 9.21094 75.2578 14.4788 80.3767 27.2235C72.6983 21.7857 68.5298 19.0669 57.0498 15.3284Z" fill="white"/>
<path d="M130.288 41.524L129.856 49.246C126.832 51.514 122.782 52.648 117.706 52.648C112.63 52.648 108.49 50.956 105.286 47.572C102.082 44.188 100.48 39.382 100.48 33.154C100.48 26.89 102.208 22.066 105.664 18.682C109.12 15.262 113.494 13.552 118.786 13.552C122.998 13.552 126.706 14.632 129.91 16.792L128.506 24.838C126.886 24.838 126.076 24.586 126.076 24.082V18.088C123.808 17.188 121.324 16.738 118.624 16.738C115.924 16.738 113.278 17.17 110.686 18.034C108.994 19.294 107.662 21.256 106.69 23.92C105.718 26.584 105.232 29.608 105.232 32.992C105.232 38.428 106.456 42.586 108.904 45.466C111.352 48.346 114.538 49.786 118.462 49.786C121.702 49.786 124.42 49.12 126.616 47.788L127.858 42.28C128.002 41.776 128.812 41.524 130.288 41.524ZM157.051 28.024L153.433 27.268C153.433 26.152 153.757 25.594 154.405 25.594C154.945 25.594 156.439 25.648 158.887 25.756L163.261 25.594C163.873 25.594 164.179 26.134 164.179 27.214L160.723 28.024V49.57L164.179 50.326C164.179 51.442 163.873 52 163.261 52L158.887 51.676L154.405 52C153.757 52 153.433 51.442 153.433 50.326L157.051 49.57L156.619 39.472L143.443 40.012L143.065 49.57L146.683 50.326C146.683 51.442 146.377 52 145.765 52L141.391 51.676L136.909 52C136.261 52 135.937 51.442 135.937 50.326L139.393 49.57V28.024L135.937 27.268C135.937 26.152 136.261 25.594 136.909 25.594C137.449 25.594 138.943 25.648 141.391 25.756L145.765 25.594C146.377 25.594 146.683 26.134 146.683 27.214L143.065 28.024L143.497 37.204H156.619L157.051 28.024ZM173.565 28.024L170.109 27.268C170.109 26.152 170.433 25.594 171.081 25.594C171.621 25.594 173.115 25.648 175.563 25.756L179.937 25.594C180.549 25.594 180.855 26.134 180.855 27.214L177.399 28.024V49.57L180.855 50.326C180.855 51.442 180.549 52 179.937 52L175.563 51.676L171.081 52C170.433 52 170.109 51.442 170.109 50.326L173.565 49.57V28.024ZM205.511 25.594L210.587 25.756L214.259 25.594C214.871 25.666 215.177 26.224 215.177 27.268L212.099 28.078L211.937 52H209.507L192.767 31.21C192.803 33.226 192.875 36.286 192.983 40.39C193.091 44.458 193.163 47.518 193.199 49.57C194.099 49.786 195.521 50.038 197.465 50.326C197.465 51.442 197.141 52 196.493 52L191.525 51.676L187.475 52C186.827 52 186.503 51.442 186.503 50.326L190.067 49.516L189.905 28.078L186.503 27.322C186.503 26.17 186.827 25.594 187.475 25.594C187.979 25.594 189.869 25.648 193.145 25.756L209.183 46.06L208.859 28.078L204.593 27.322C204.593 26.17 204.899 25.594 205.511 25.594ZM224.565 49.57L228.183 50.326C228.183 51.442 227.859 52 227.211 52C226.923 52 225.357 51.946 222.513 51.838L218.787 52C218.175 52 217.869 51.46 217.869 50.38L221.001 49.57L230.127 25.594H233.637L242.871 49.516L246.003 50.38C246.003 51.46 245.679 52 245.031 52C244.419 52 242.979 51.946 240.711 51.838L236.013 52C235.365 52 235.041 51.442 235.041 50.326L238.713 49.57L236.553 43.576L226.509 44.116L224.565 49.57ZM231.531 29.752L227.427 41.308H235.689L231.531 29.752ZM273.245 42.82C273.245 45.952 272.057 48.382 269.681 50.11C267.305 51.802 264.263 52.648 260.555 52.648C256.883 52.648 253.031 51.784 248.999 50.056C249.683 44.116 250.097 41.146 250.241 41.146C251.789 41.146 252.563 41.362 252.563 41.794V47.788C254.903 49.3 257.513 50.056 260.393 50.056C263.309 50.056 265.415 49.444 266.711 48.22C268.007 46.996 268.655 45.43 268.655 43.522C268.655 41.038 267.377 39.058 264.821 37.582L255.263 32.128C253.463 31.12 252.095 29.86 251.159 28.348C250.223 26.8 249.755 25.18 249.755 23.488C249.755 20.788 250.853 18.466 253.049 16.522C255.281 14.542 258.305 13.552 262.121 13.552C264.893 13.552 268.007 14.2 271.463 15.496L270.059 23.812C268.547 23.812 267.791 23.56 267.791 23.056V17.602C265.847 16.702 263.849 16.252 261.797 16.252C258.125 16.252 255.461 17.602 253.805 20.302C253.625 20.914 253.535 21.634 253.535 22.462C253.535 24.946 254.885 26.962 257.585 28.51L266.873 33.802C268.925 34.99 270.491 36.394 271.571 38.014C272.687 39.634 273.245 41.236 273.245 42.82ZM300.014 28.024L296.396 27.268C296.396 26.152 296.72 25.594 297.368 25.594C297.908 25.594 299.402 25.648 301.85 25.756L306.224 25.594C306.836 25.594 307.142 26.134 307.142 27.214L303.686 28.024V49.57L307.142 50.326C307.142 51.442 306.836 52 306.224 52L301.85 51.676L297.368 52C296.72 52 296.396 51.442 296.396 50.326L300.014 49.57L299.582 39.472L286.406 40.012L286.028 49.57L289.646 50.326C289.646 51.442 289.34 52 288.728 52L284.354 51.676L279.872 52C279.224 52 278.9 51.442 278.9 50.326L282.356 49.57V28.024L278.9 27.268C278.9 26.152 279.224 25.594 279.872 25.594C280.412 25.594 281.906 25.648 284.354 25.756L288.728 25.594C289.34 25.594 289.646 26.134 289.646 27.214L286.028 28.024L286.46 37.204H299.582L300.014 28.024ZM316.528 28.024L313.072 27.268C313.072 26.152 313.396 25.594 314.044 25.594C314.584 25.594 316.078 25.648 318.526 25.756L322.9 25.594C323.512 25.594 323.818 26.134 323.818 27.214L320.362 28.024V49.57L323.818 50.326C323.818 51.442 323.512 52 322.9 52L318.526 51.676L314.044 52C313.396 52 313.072 51.442 313.072 50.326L316.528 49.57V28.024ZM336.864 28.132L337.35 40.012L339.672 40.12C341.688 40.048 343.254 39.382 344.37 38.122C345.486 36.826 346.044 35.368 346.044 33.748C346.044 32.092 345.558 30.688 344.586 29.536C343.65 28.384 342.264 27.79 340.428 27.754L336.864 28.132ZM335.19 25.756L341.13 25.594C343.722 25.594 345.792 26.368 347.34 27.916C348.888 29.464 349.662 31.39 349.662 33.694C349.662 35.962 348.762 37.942 346.962 39.634C345.198 41.29 342.678 42.19 339.402 42.334L337.242 42.442L336.864 49.57L341.454 50.326C341.454 51.442 341.148 52 340.536 52L335.19 51.676L330.708 52C330.06 52 329.736 51.442 329.736 50.326L333.192 49.57V28.024L329.736 27.268C329.736 26.152 330.06 25.594 330.708 25.594C331.248 25.594 332.742 25.648 335.19 25.756Z" fill="white"/>
</svg>
